<?xml version="1.0" encoding="UTF-8" standalone="no" ?>
<!DOCTYPE svg PUBLIC "-//W3C//DTD SVG 1.1//EN" "http://www.w3.org/Graphics/SVG/1.1/DTD/svg11.dtd">
<svg xmlns="http://www.w3.org/2000/svg" xmlns:xlink="http://www.w3.org/1999/xlink" version="1.1" width="1500" height="180" viewBox="0 0 1500 180" xml:space="preserve">
<desc>Created with Fabric.js 5.3.0</desc>
<defs>
</defs>
<g transform="matrix(1 0 0 -1 750 90)" id="1_kKWvi-3jw2GKKLIuC7C"  >
<g style=""   >
		<g transform="matrix(1 0 0 1 0 -14)" id="VEzxgJvf4JYtF7WPryhby"  >
<path style="stroke: none; stroke-width: 1; stroke-dasharray: none; stroke-linecap: butt; stroke-dashoffset: 0; stroke-linejoin: miter; stroke-miterlimit: 4; fill: rgb(61,60,60); fill-rule: nonzero; opacity: 1;"  transform=" translate(-750, -76)" d="M 0 113 L 83 114 L 167 121 L 250 72 L 333 122 L 417 99 L 500 147 L 583 108 L 667 96 L 750 152 L 833 105 L 917 86 L 1000 88 L 1083 103 L 1167 136 L 1250 140 L 1333 140 L 1417 126 L 1500 125 L 1500 0 L 1417 0 L 1333 0 L 1250 0 L 1167 0 L 1083 0 L 1000 0 L 917 0 L 833 0 L 750 0 L 667 0 L 583 0 L 500 0 L 417 0 L 333 0 L 250 0 L 167 0 L 83 0 L 0 0 Z" stroke-linecap="round" />
</g>
		<g transform="matrix(1 0 0 1 0 -18)" id="aTaC8k2721XW8R_fmQhud"  >
<path style="stroke: none; stroke-width: 1; stroke-dasharray: none; stroke-linecap: butt; stroke-dashoffset: 0; stroke-linejoin: miter; stroke-miterlimit: 4; fill: rgb(70,69,69); fill-rule: nonzero; opacity: 1;"  transform=" translate(-750, -72)" d="M 0 144 L 83 96 L 167 116 L 250 80 L 333 103 L 417 110 L 500 144 L 583 94 L 667 69 L 750 140 L 833 67 L 917 95 L 1000 98 L 1083 141 L 1167 113 L 1250 90 L 1333 92 L 1417 132 L 1500 126 L 1500 0 L 1417 0 L 1333 0 L 1250 0 L 1167 0 L 1083 0 L 1000 0 L 917 0 L 833 0 L 750 0 L 667 0 L 583 0 L 500 0 L 417 0 L 333 0 L 250 0 L 167 0 L 83 0 L 0 0 Z" stroke-linecap="round" />
</g>
		<g transform="matrix(1 0 0 1 0 -27)" id="b-HXYYGiFHdaaTnf-hx8I"  >
<path style="stroke: none; stroke-width: 1; stroke-dasharray: none; stroke-linecap: butt; stroke-dashoffset: 0; stroke-linejoin: miter; stroke-miterlimit: 4; fill: rgb(80,78,78); fill-rule: nonzero; opacity: 1;"  transform=" translate(-750, -63)" d="M 0 99 L 83 81 L 167 58 L 250 62 L 333 64 L 417 71 L 500 73 L 583 82 L 667 116 L 750 66 L 833 126 L 917 98 L 1000 82 L 1083 70 L 1167 67 L 1250 69 L 1333 118 L 1417 83 L 1500 110 L 1500 0 L 1417 0 L 1333 0 L 1250 0 L 1167 0 L 1083 0 L 1000 0 L 917 0 L 833 0 L 750 0 L 667 0 L 583 0 L 500 0 L 417 0 L 333 0 L 250 0 L 167 0 L 83 0 L 0 0 Z" stroke-linecap="round" />
</g>
		<g transform="matrix(1 0 0 1 0 -32)" id="X-r8n-mNOLxao-HvxHwgq"  >
<path style="stroke: none; stroke-width: 1; stroke-dasharray: none; stroke-linecap: butt; stroke-dashoffset: 0; stroke-linejoin: miter; stroke-miterlimit: 4; fill: rgb(89,88,87); fill-rule: nonzero; opacity: 1;"  transform=" translate(-750, -58)" d="M 0 111 L 83 100 L 167 88 L 250 67 L 333 95 L 417 91 L 500 54 L 583 72 L 667 78 L 750 76 L 833 88 L 917 66 L 1000 110 L 1083 58 L 1167 116 L 1250 83 L 1333 115 L 1417 115 L 1500 69 L 1500 0 L 1417 0 L 1333 0 L 1250 0 L 1167 0 L 1083 0 L 1000 0 L 917 0 L 833 0 L 750 0 L 667 0 L 583 0 L 500 0 L 417 0 L 333 0 L 250 0 L 167 0 L 83 0 L 0 0 Z" stroke-linecap="round" />
</g>
		<g transform="matrix(1 0 0 1 0 -38.5)" id="ZDshglm5XigrQEPHUK3BJ"  >
<path style="stroke: none; stroke-width: 1; stroke-dasharray: none; stroke-linecap: butt; stroke-dashoffset: 0; stroke-linejoin: miter; stroke-miterlimit: 4; fill: rgb(99,97,96); fill-rule: nonzero; opacity: 1;"  transform=" translate(-750, -51.5)" d="M 0 76 L 83 96 L 167 90 L 250 68 L 333 88 L 417 100 L 500 99 L 583 103 L 667 49 L 750 85 L 833 89 L 917 79 L 1000 90 L 1083 100 L 1167 69 L 1250 94 L 1333 42 L 1417 90 L 1500 77 L 1500 0 L 1417 0 L 1333 0 L 1250 0 L 1167 0 L 1083 0 L 1000 0 L 917 0 L 833 0 L 750 0 L 667 0 L 583 0 L 500 0 L 417 0 L 333 0 L 250 0 L 167 0 L 83 0 L 0 0 Z" stroke-linecap="round" />
</g>
		<g transform="matrix(1 0 0 1 0 -44.5)" id="MrS4nf_fDrgPw06H9uWuN"  >
<path style="stroke: none; stroke-width: 1; stroke-dasharray: none; stroke-linecap: butt; stroke-dashoffset: 0; stroke-linejoin: miter; stroke-miterlimit: 4; fill: rgb(109,107,106); fill-rule: nonzero; opacity: 1;"  transform=" translate(-750, -45.5)" d="M 0 91 L 83 57 L 167 66 L 250 75 L 333 46 L 417 86 L 500 87 L 583 35 L 667 59 L 750 51 L 833 86 L 917 47 L 1000 47 L 1083 76 L 1167 41 L 1250 48 L 1333 42 L 1417 51 L 1500 70 L 1500 0 L 1417 0 L 1333 0 L 1250 0 L 1167 0 L 1083 0 L 1000 0 L 917 0 L 833 0 L 750 0 L 667 0 L 583 0 L 500 0 L 417 0 L 333 0 L 250 0 L 167 0 L 83 0 L 0 0 Z" stroke-linecap="round" />
</g>
		<g transform="matrix(1 0 0 1 0 -51)" id="S4fZPzvFaCJfIJdRrynMn"  >
<path style="stroke: none; stroke-width: 1; stroke-dasharray: none; stroke-linecap: butt; stroke-dashoffset: 0; stroke-linejoin: miter; stroke-miterlimit: 4; fill: rgb(119,117,116); fill-rule: nonzero; opacity: 1;"  transform=" translate(-750, -39)" d="M 0 57 L 83 72 L 167 70 L 250 76 L 333 28 L 417 35 L 500 52 L 583 45 L 667 68 L 750 47 L 833 49 L 917 50 L 1000 69 L 1083 59 L 1167 60 L 1250 58 L 1333 35 L 1417 30 L 1500 78 L 1500 0 L 1417 0 L 1333 0 L 1250 0 L 1167 0 L 1083 0 L 1000 0 L 917 0 L 833 0 L 750 0 L 667 0 L 583 0 L 500 0 L 417 0 L 333 0 L 250 0 L 167 0 L 83 0 L 0 0 Z" stroke-linecap="round" />
</g>
		<g transform="matrix(1 0 0 1 0 -58)" id="XJwNw5QoKYLcd3Nlr3p2p"  >
<path style="stroke: none; stroke-width: 1; stroke-dasharray: none; stroke-linecap: butt; stroke-dashoffset: 0; stroke-linejoin: miter; stroke-miterlimit: 4; fill: rgb(129,127,125); fill-rule: nonzero; opacity: 1;"  transform=" translate(-750, -32)" d="M 0 51 L 83 64 L 167 61 L 250 56 L 333 49 L 417 24 L 500 60 L 583 44 L 667 27 L 750 39 L 833 55 L 917 64 L 1000 36 L 1083 40 L 1167 46 L 1250 36 L 1333 30 L 1417 26 L 1500 23 L 1500 0 L 1417 0 L 1333 0 L 1250 0 L 1167 0 L 1083 0 L 1000 0 L 917 0 L 833 0 L 750 0 L 667 0 L 583 0 L 500 0 L 417 0 L 333 0 L 250 0 L 167 0 L 83 0 L 0 0 Z" stroke-linecap="round" />
</g>
		<g transform="matrix(1 0 0 1 0 -66.5)" id="yBj3QZ4yF28QdgD_8-2sm"  >
<path style="stroke: none; stroke-width: 1; stroke-dasharray: none; stroke-linecap: butt; stroke-dashoffset: 0; stroke-linejoin: miter; stroke-miterlimit: 4; fill: rgb(140,137,135); fill-rule: nonzero; opacity: 1;"  transform=" translate(-750, -23.5)" d="M 0 26 L 83 27 L 167 37 L 250 39 L 333 29 L 417 42 L 500 47 L 583 37 L 667 26 L 750 19 L 833 44 L 917 28 L 1000 40 L 1083 26 L 1167 25 L 1250 32 L 1333 17 L 1417 42 L 1500 21 L 1500 0 L 1417 0 L 1333 0 L 1250 0 L 1167 0 L 1083 0 L 1000 0 L 917 0 L 833 0 L 750 0 L 667 0 L 583 0 L 500 0 L 417 0 L 333 0 L 250 0 L 167 0 L 83 0 L 0 0 Z" stroke-linecap="round" />
</g>
		<g transform="matrix(1 0 0 1 0 -71.5)" id="Vq4zXSZsyh_mcNjD4o65v"  >
<path style="stroke: none; stroke-width: 1; stroke-dasharray: none; stroke-linecap: butt; stroke-dashoffset: 0; stroke-linejoin: miter; stroke-miterlimit: 4; fill: rgb(150,147,145); fill-rule: nonzero; opacity: 1;"  transform=" translate(-750, -18.5)" d="M 0 29 L 83 20 L 167 13 L 250 25 L 333 28 L 417 35 L 500 20 L 583 34 L 667 28 L 750 25 L 833 36 L 917 30 L 1000 11 L 1083 37 L 1167 31 L 1250 37 L 1333 23 L 1417 17 L 1500 15 L 1500 0 L 1417 0 L 1333 0 L 1250 0 L 1167 0 L 1083 0 L 1000 0 L 917 0 L 833 0 L 750 0 L 667 0 L 583 0 L 500 0 L 417 0 L 333 0 L 250 0 L 167 0 L 83 0 L 0 0 Z" stroke-linecap="round" />
</g>
		<g transform="matrix(1 0 0 1 0 -78)" id="-IiRPDUgh0otivJ6Nmtjg"  >
<path style="stroke: none; stroke-width: 1; stroke-dasharray: none; stroke-linecap: butt; stroke-dashoffset: 0; stroke-linejoin: miter; stroke-miterlimit: 4; fill: rgb(161,158,155); fill-rule: nonzero; opacity: 1;"  transform=" translate(-750, -12)" d="M 0 22 L 83 4 L 167 8 L 250 24 L 333 21 L 417 4 L 500 6 L 583 22 L 667 20 L 750 24 L 833 5 L 917 19 L 1000 21 L 1083 18 L 1167 9 L 1250 19 L 1333 22 L 1417 5 L 1500 23 L 1500 0 L 1417 0 L 1333 0 L 1250 0 L 1167 0 L 1083 0 L 1000 0 L 917 0 L 833 0 L 750 0 L 667 0 L 583 0 L 500 0 L 417 0 L 333 0 L 250 0 L 167 0 L 83 0 L 0 0 Z" stroke-linecap="round" />
</g>
</g>
</g>
</svg>