<svg id="visual" viewBox="0 0 1500 180" width="1500" height="180" xmlns="http://www.w3.org/2000/svg" xmlns:xlink="http://www.w3.org/1999/xlink" version="1.1"><path d="M0 113L83 114L167 121L250 72L333 122L417 99L500 147L583 108L667 96L750 152L833 105L917 86L1000 88L1083 103L1167 136L1250 140L1333 140L1417 126L1500 125L1500 0L1417 0L1333 0L1250 0L1167 0L1083 0L1000 0L917 0L833 0L750 0L667 0L583 0L500 0L417 0L333 0L250 0L167 0L83 0L0 0Z" fill="#3d3c3c"></path><path d="M0 144L83 96L167 116L250 80L333 103L417 110L500 144L583 94L667 69L750 140L833 67L917 95L1000 98L1083 141L1167 113L1250 90L1333 92L1417 132L1500 126L1500 0L1417 0L1333 0L1250 0L1167 0L1083 0L1000 0L917 0L833 0L750 0L667 0L583 0L500 0L417 0L333 0L250 0L167 0L83 0L0 0Z" fill="#464545"></path><path d="M0 99L83 81L167 58L250 62L333 64L417 71L500 73L583 82L667 116L750 66L833 126L917 98L1000 82L1083 70L1167 67L1250 69L1333 118L1417 83L1500 110L1500 0L1417 0L1333 0L1250 0L1167 0L1083 0L1000 0L917 0L833 0L750 0L667 0L583 0L500 0L417 0L333 0L250 0L167 0L83 0L0 0Z" fill="#504e4e"></path><path d="M0 111L83 100L167 88L250 67L333 95L417 91L500 54L583 72L667 78L750 76L833 88L917 66L1000 110L1083 58L1167 116L1250 83L1333 115L1417 115L1500 69L1500 0L1417 0L1333 0L1250 0L1167 0L1083 0L1000 0L917 0L833 0L750 0L667 0L583 0L500 0L417 0L333 0L250 0L167 0L83 0L0 0Z" fill="#595857"></path><path d="M0 76L83 96L167 90L250 68L333 88L417 100L500 99L583 103L667 49L750 85L833 89L917 79L1000 90L1083 100L1167 69L1250 94L1333 42L1417 90L1500 77L1500 0L1417 0L1333 0L1250 0L1167 0L1083 0L1000 0L917 0L833 0L750 0L667 0L583 0L500 0L417 0L333 0L250 0L167 0L83 0L0 0Z" fill="#636160"></path><path d="M0 91L83 57L167 66L250 75L333 46L417 86L500 87L583 35L667 59L750 51L833 86L917 47L1000 47L1083 76L1167 41L1250 48L1333 42L1417 51L1500 70L1500 0L1417 0L1333 0L1250 0L1167 0L1083 0L1000 0L917 0L833 0L750 0L667 0L583 0L500 0L417 0L333 0L250 0L167 0L83 0L0 0Z" fill="#6d6b6a"></path><path d="M0 57L83 72L167 70L250 76L333 28L417 35L500 52L583 45L667 68L750 47L833 49L917 50L1000 69L1083 59L1167 60L1250 58L1333 35L1417 30L1500 78L1500 0L1417 0L1333 0L1250 0L1167 0L1083 0L1000 0L917 0L833 0L750 0L667 0L583 0L500 0L417 0L333 0L250 0L167 0L83 0L0 0Z" fill="#777574"></path><path d="M0 51L83 64L167 61L250 56L333 49L417 24L500 60L583 44L667 27L750 39L833 55L917 64L1000 36L1083 40L1167 46L1250 36L1333 30L1417 26L1500 23L1500 0L1417 0L1333 0L1250 0L1167 0L1083 0L1000 0L917 0L833 0L750 0L667 0L583 0L500 0L417 0L333 0L250 0L167 0L83 0L0 0Z" fill="#817f7d"></path><path d="M0 26L83 27L167 37L250 39L333 29L417 42L500 47L583 37L667 26L750 19L833 44L917 28L1000 40L1083 26L1167 25L1250 32L1333 17L1417 42L1500 21L1500 0L1417 0L1333 0L1250 0L1167 0L1083 0L1000 0L917 0L833 0L750 0L667 0L583 0L500 0L417 0L333 0L250 0L167 0L83 0L0 0Z" fill="#8c8987"></path><path d="M0 29L83 20L167 13L250 25L333 28L417 35L500 20L583 34L667 28L750 25L833 36L917 30L1000 11L1083 37L1167 31L1250 37L1333 23L1417 17L1500 15L1500 0L1417 0L1333 0L1250 0L1167 0L1083 0L1000 0L917 0L833 0L750 0L667 0L583 0L500 0L417 0L333 0L250 0L167 0L83 0L0 0Z" fill="#969391"></path><path d="M0 22L83 4L167 8L250 24L333 21L417 4L500 6L583 22L667 20L750 24L833 5L917 19L1000 21L1083 18L1167 9L1250 19L1333 22L1417 5L1500 23L1500 0L1417 0L1333 0L1250 0L1167 0L1083 0L1000 0L917 0L833 0L750 0L667 0L583 0L500 0L417 0L333 0L250 0L167 0L83 0L0 0Z" fill="#a19e9b"></path></svg>